# xmcd
# 
# Track frame offsets:
#   150
#   23475
#   40275
#   57450
#   82950
#   103125
#   114225
#   136650
#   159600
#   179400
#   195900
#   216750
# 
# Disc length: 3254 seconds
# 
# Revision: 0
# Processed by: cddbd v1.5.1PL2 Copyright (c) Steve Scherf et al.
# Submitted via: Synapstar 1.0 
# 
DISCID=960cb40c
DTITLE=DIXIE CHICKS - RS RADIO STARZ
DYEAR=1900
DGENRE=Country
TTITLE0=MISSISSIPPI
TTITLE1=LONG TIME GONE
TTITLE2=LANDSLIDE
TTITLE3=TRAVELIN' SOLDIER
TTITLE4=TRUTH NO. 2
TTITLE5=WHITE  TRASH WEDDING
TTITLE6=A HOME
TTITLE7=MORE LOVE
TTITLE8=I BELIEVE IN LOVE
TTITLE9=TORTURED,TANGLED HEARTS
TTITLE10=GODSPEED (SWEET DREAMA)
TTITLE11=TOP OF THE WORLD
EXTD=MediaType: Karaoke CD+G Producer: Radio starz
EXTT0=
EXTT1=
EXTT2=
EXTT3=
EXTT4=
EXTT5=
EXTT6=
EXTT7=
EXTT8=
EXTT9=
EXTT10=
EXTT11=
PLAYORDER=
